<?xml version="1.0" encoding="utf-8"?>
<!-- Generator: Adobe Illustrator 22.0.1, SVG Export Plug-In . SVG Version: 6.00 Build 0)  -->
<svg version="1.1" id="Layer_1" xmlns="http://www.w3.org/2000/svg" xmlns:xlink="http://www.w3.org/1999/xlink" x="0px" y="0px"
	 viewBox="0 0 426.1 60.9" style="enable-background:new 0 0 426.1 60.9;" xml:space="preserve">
<style type="text/css">
	.st0{fill:#FFFFFF;}
	.st1{opacity:0.5;fill:#F2F2F2;}
</style>
<g>
	<g>
		<path class="st0" d="M144.9,32.8c1.2,1.5,1.7,3.3,1.7,5.5c0,3.8-1.3,6.7-3.9,8.6c-2.6,1.9-6,2.9-10.1,2.9H115V11.9h16.1
			c4.3,0,7.7,0.8,10.1,2.5c2.4,1.7,3.6,4.4,3.6,8c0,3-1.6,5.3-4.7,7.1C142.1,30.2,143.8,31.3,144.9,32.8z M124.2,26.8h7.4
			c1,0,1.9-0.3,2.6-0.9c0.7-0.6,1.1-1.5,1.1-2.7c0-2.7-1.4-4.1-4.3-4.1h-6.8V26.8z M135.7,41.6c1-0.8,1.5-2,1.5-3.6
			c0-1.6-0.5-2.7-1.5-3.4c-1-0.7-2.3-1-3.9-1h-7.6v9.2h7.7C133.4,42.7,134.7,42.4,135.7,41.6z"/>
		<path class="st0" d="M173,22.4c2.6,1.5,3.9,4.1,3.9,7.9l-0.1,13.6c0,2.4-1.2,4.1-3.6,5.2c-2.4,1.1-5.8,1.6-10.3,1.6
			c-8.4,0-12.6-3.3-12.6-9.8c0-2.8,0.9-4.9,2.6-6.5c1.7-1.6,4.3-2.3,7.7-2.3c1.4,0,2.8,0.2,4.2,0.5c1.4,0.4,2.6,0.8,3.6,1.4v-1.8
			c0-3.3-2.1-4.9-6.4-4.9c-1.6,0-3.3,0.3-5,0.9c-1.7,0.6-3.1,1.3-4.1,2.1v-7.5c1-0.7,2.6-1.3,4.7-1.8c2.1-0.5,4.4-0.7,6.8-0.7
			C167.5,20.2,170.4,20.9,173,22.4z M167.3,44.3c0.8-0.3,1.1-0.8,1.1-1.6v-4.4c-1.3-0.5-2.8-0.7-4.4-0.7c-1.9,0-3.2,0.3-4.1,0.8
			c-0.9,0.6-1.3,1.4-1.3,2.6c0,1.1,0.4,2,1.3,2.7c0.9,0.7,1.9,1,3.2,1C165.1,44.7,166.5,44.5,167.3,44.3z"/>
		<path class="st0" d="M210.2,21l-11.3,29.2c-2.8,7.1-6.4,10.7-11,10.7c-2,0-3.7-0.3-5.1-1V53c1.1,0.4,2.3,0.6,3.4,0.6
			c1.1,0,2.1-0.3,2.9-1c0.8-0.6,1.4-1.7,1.8-3.2L179.3,21h9.7l6.1,18.9l6.1-18.9H210.2z"/>
		<path class="st0" d="M238.9,37.6h-19c0.7,4,3.4,6,8,6c1.4,0,2.8-0.2,4.1-0.6c1.3-0.4,2.8-0.9,4.3-1.6v7.3
			c-3.1,1.3-6.6,1.9-10.5,1.9c-2.9,0-5.5-0.6-7.7-1.8c-2.2-1.2-3.9-2.9-5.1-5.1c-1.2-2.2-1.8-4.9-1.8-7.9c0-5,1.2-8.9,3.7-11.6
			c2.5-2.7,6-4.1,10.6-4.1C234.5,20.1,239,25.9,238.9,37.6z M219.8,32.2h10.6c-0.3-2-0.8-3.5-1.6-4.4c-0.8-0.9-2-1.3-3.6-1.3
			C222.2,26.5,220.4,28.4,219.8,32.2z"/>
		<path class="st0" d="M247.1,50.1c-1.4-0.4-2.9-0.9-4.6-1.6v-7.5c3.1,2.3,6.3,3.5,9.7,3.5c1.3,0,2.2-0.2,2.8-0.7
			c0.6-0.4,0.9-1,0.9-1.8c0-0.9-0.5-1.5-1.4-1.9c-0.9-0.4-2.5-0.9-4.5-1.4c-2.2-0.5-4-1.4-5.4-2.7c-1.4-1.4-2.1-3.4-2.1-6
			c0-2.2,0.6-4.1,1.7-5.5c1.1-1.4,2.6-2.5,4.3-3.2c1.7-0.7,3.5-1,5.4-1c2.3,0,4.1,0.2,5.5,0.6c1.4,0.4,2.8,1,4.2,1.8v6.7
			c-1.9-1.1-3.4-1.8-4.5-2.3c-1.1-0.5-2.3-0.7-3.7-0.7c-1.4,0-2.4,0.2-3.1,0.7s-1,1.1-1,1.8c0,0.9,0.4,1.6,1.1,2.1
			c0.8,0.4,2,0.9,3.6,1.3c1.9,0.5,3.4,1,4.5,1.5c1.1,0.5,2.1,1.3,3,2.4c0.9,1.2,1.3,2.8,1.3,4.9c-0.1,3.3-1.3,5.6-3.7,7.1
			c-2.4,1.5-5.4,2.2-9.1,2.2C250.1,50.7,248.5,50.5,247.1,50.1z"/>
		<path class="st0" d="M273,45.4c-2.9-3.3-4.4-8.1-4.4-14.6c0-6.4,1.5-11.3,4.4-14.6c2.9-3.3,7.3-4.9,13.2-4.9
			c3.9,0,7.7,0.9,11.5,2.8v3.9c-3.6-1.9-7.3-2.8-11.1-2.8c-4.8,0-8.3,1.3-10.5,3.8c-2.2,2.5-3.3,6.4-3.3,11.8
			c0,5.4,1.1,9.4,3.3,11.9c2.2,2.5,5.7,3.7,10.5,3.7c4,0,7.7-0.9,11.1-2.8v3.9c-3.9,1.8-7.7,2.7-11.5,2.7
			C280.3,50.3,275.9,48.6,273,45.4z"/>
		<path class="st0" d="M324.3,25.1c2,2.8,3,6.5,2.9,11.2h-20.7c0,3.4,0.8,6,2.4,7.8c1.6,1.8,3.9,2.7,6.8,2.7c3.8,0,7-0.8,9.7-2.4
			v4.2c-2.8,1.3-6.1,2-10,2c-4.1,0-7.4-1.3-9.7-3.8s-3.5-6.3-3.5-11.2c0-4.8,1.1-8.5,3.3-10.9c2.2-2.5,5.2-3.7,9.2-3.7
			C319.1,20.9,322.3,22.3,324.3,25.1z M309.1,26.4c-1.3,1.2-2.1,3.2-2.4,6.2h16.2c-0.2-2.7-0.9-4.6-2.2-5.9c-1.3-1.3-3.3-2-5.8-2
			C312.3,24.7,310.4,25.2,309.1,26.4z"/>
		<path class="st0" d="M345.3,20.9c4,0,6.9,0.9,8.6,2.6c1.8,1.7,2.6,4.3,2.6,7.8v18.5h-4.1V31.3c0-4.5-2.5-6.7-7.6-6.7
			c-2.4,0-4.8,0.4-7.5,1.1v24.1h-4.1V23.7C337,21.8,341,20.9,345.3,20.9z"/>
		<path class="st0" d="M367.9,48.3c-1.3-1.3-2-3.1-2-5.4V25.2H361v-3.8h4.9v-8h4.1v8h7.3v3.8H370v16.4c0,1.7,0.3,2.9,0.8,3.6
			c0.5,0.8,1.5,1.1,3,1.1c1.4,0,2.6-0.2,3.6-0.7v3.9c-0.5,0.2-1.2,0.4-2,0.5c-0.8,0.1-1.6,0.2-2.3,0.2
			C371,50.3,369.3,49.6,367.9,48.3z"/>
		<path class="st0" d="M383,23.7c1.4-0.6,3.3-1.2,5.7-1.8c2.4-0.6,4.8-0.9,7.4-0.9c0.4,0,1,0.1,1.8,0.3v3.6
			c-0.9-0.1-1.8-0.2-2.7-0.2c-1.3,0-2.4,0.1-3.5,0.2c-1.1,0.2-2.6,0.4-4.6,0.7v24.1H383V23.7z"/>
		<path class="st0" d="M423.2,25.1c2,2.8,3,6.5,2.9,11.2h-20.7c0,3.4,0.8,6,2.4,7.8c1.6,1.8,3.9,2.7,6.8,2.7c3.8,0,7-0.8,9.7-2.4
			v4.2c-2.8,1.3-6.1,2-10,2c-4.1,0-7.4-1.3-9.7-3.8s-3.5-6.3-3.5-11.2c0-4.8,1.1-8.5,3.3-10.9c2.2-2.5,5.2-3.7,9.2-3.7
			C418,20.9,421.2,22.3,423.2,25.1z M408,26.4c-1.3,1.2-2.1,3.2-2.4,6.2h16.2c-0.2-2.7-0.9-4.6-2.2-5.9c-1.3-1.3-3.3-2-5.8-2
			C411.2,24.7,409.3,25.2,408,26.4z"/>
	</g>
	<g>
		<path class="st1" d="M94.4,33.4c-33,90.1-80.5-77.2-93.4-22l0,0c-13.2,56.2,109.3-33.1,93.5,21.4L94.4,33.4z"/>
		<path class="st0" d="M2.5,27C17.3,43,88.3-1.7,95.1,20.3c0,0-2.5-6.2-17.8-2.1c-13.1,3.6-30.6,12.2-43.5,14.9
			C22.8,35.5,11,36.3,6,31.3C2.3,27.5,2.5,27,2.5,27z"/>
	</g>
</g>
</svg>
