<?xml version="1.0" encoding="iso-8859-1"?>
<!-- Generator: Adobe Illustrator 19.0.0, SVG Export Plug-In . SVG Version: 6.00 Build 0)  -->
<svg xmlns="http://www.w3.org/2000/svg" xmlns:xlink="http://www.w3.org/1999/xlink" version="1.1" id="Capa_1" x="0px" y="0px" viewBox="0 0 480 480" style="enable-background:new 0 0 480 480;" xml:space="preserve" width="512px" height="512px">
<g>
	<g>
		<path d="M360,4H8c-4.418,0-8,3.582-8,8v456c0,4.418,3.582,8,8,8h352c4.418,0,8-3.582,8-8V12C368,7.582,364.418,4,360,4z M352,460    H16V20h336V460z" fill="#61487a"/>
	</g>
</g>
<g>
	<g>
		<path d="M224,84h-80c-4.418,0-8,3.582-8,8s3.582,8,8,8h80c4.418,0,8-3.582,8-8S228.418,84,224,84z" fill="#61487a"/>
	</g>
</g>
<g>
	<g>
		<path d="M120,180H72c-4.418,0-8,3.582-8,8s3.582,8,8,8h48c4.418,0,8-3.582,8-8S124.418,180,120,180z" fill="#61487a"/>
	</g>
</g>
<g>
	<g>
		<path d="M328,180H152c-4.418,0-8,3.582-8,8s3.582,8,8,8h176c4.418,0,8-3.582,8-8S332.418,180,328,180z" fill="#61487a"/>
	</g>
</g>
<g>
	<g>
		<path d="M328,212H40c-4.418,0-8,3.582-8,8s3.582,8,8,8h288c4.418,0,8-3.582,8-8S332.418,212,328,212z" fill="#61487a"/>
	</g>
</g>
<g>
	<g>
		<path d="M248,244H40c-4.418,0-8,3.582-8,8s3.582,8,8,8h208c4.418,0,8-3.582,8-8S252.418,244,248,244z" fill="#61487a"/>
	</g>
</g>
<g>
	<g>
		<path d="M328,244h-48c-4.418,0-8,3.582-8,8s3.582,8,8,8h48c4.418,0,8-3.582,8-8S332.418,244,328,244z" fill="#61487a"/>
	</g>
</g>
<g>
	<g>
		<path d="M328,276H184c-4.418,0-8,3.582-8,8s3.582,8,8,8h144c4.418,0,8-3.582,8-8S332.418,276,328,276z" fill="#61487a"/>
	</g>
</g>
<g>
	<g>
		<path d="M152,276H40c-4.418,0-8,3.582-8,8s3.582,8,8,8h112c4.418,0,8-3.582,8-8S156.418,276,152,276z" fill="#61487a"/>
	</g>
</g>
<g>
	<g>
		<path d="M328,308h-32c-4.418,0-8,3.582-8,8s3.582,8,8,8h32c4.418,0,8-3.582,8-8S332.418,308,328,308z" fill="#61487a"/>
	</g>
</g>
<g>
	<g>
		<path d="M80,308H40c-4.418,0-8,3.582-8,8s3.582,8,8,8h40c4.418,0,8-3.582,8-8S84.418,308,80,308z" fill="#61487a"/>
	</g>
</g>
<g>
	<g>
		<path d="M264,308H112c-4.418,0-8,3.582-8,8s3.582,8,8,8h152c4.418,0,8-3.582,8-8S268.418,308,264,308z" fill="#61487a"/>
	</g>
</g>
<g>
	<g>
		<path d="M320,404H208c-4.418,0-8,3.582-8,8s3.582,8,8,8h112c4.418,0,8-3.582,8-8S324.418,404,320,404z" fill="#61487a"/>
	</g>
</g>
<g>
	<g>
		<path d="M256,52H112c-4.418,0-8,3.582-8,8s3.582,8,8,8h144c4.418,0,8-3.582,8-8S260.418,52,256,52z" fill="#61487a"/>
	</g>
</g>
<g>
	<g>
		<path d="M472,76h-24c0-17.673-14.327-32-32-32c-17.673,0-32,14.327-32,32v288c-0.065,22.626,8.929,44.337,24.976,60.288    l1.368,1.368c3.124,3.123,8.188,3.123,11.312,0l1.368-1.368C439.071,408.337,448.065,386.626,448,364V92h16v72h16V84    C480,79.582,476.418,76,472,76z M416,408.288c-8.625-10.312-14.03-22.93-15.544-36.288h31.088    C430.03,385.358,424.625,397.976,416,408.288z M432,356h-32V92h32V356z M400,76c0-8.837,7.163-16,16-16s16,7.163,16,16H400z" fill="#61487a"/>
	</g>
</g>
<g>
	<g>
		<path d="M328,132h-96c-4.418,0-8,3.582-8,8s3.582,8,8,8h96c4.418,0,8-3.582,8-8S332.418,132,328,132z" fill="#61487a"/>
	</g>
</g>
<g>
	<g>
		<path d="M216,340H40c-4.418,0-8,3.582-8,8s3.582,8,8,8h176c4.418,0,8-3.582,8-8S220.418,340,216,340z" fill="#61487a"/>
	</g>
</g>
<g>
</g>
<g>
</g>
<g>
</g>
<g>
</g>
<g>
</g>
<g>
</g>
<g>
</g>
<g>
</g>
<g>
</g>
<g>
</g>
<g>
</g>
<g>
</g>
<g>
</g>
<g>
</g>
<g>
</g>
</svg>
