<svg width="375" height="329" viewBox="0 0 375 329" fill="none" xmlns="http://www.w3.org/2000/svg">
<path d="M220.154 87.5987C218.957 82.3077 218.589 73.1059 229.915 72.5078H229.961C230.467 72.5998 240.09 74.1181 242.392 80.5594C241.977 80.3293 241.517 80.1453 241.103 80.0073C234.427 78.1209 226.462 79.4552 221.996 84.7462C221.259 85.6204 220.66 86.5866 220.154 87.5987Z" fill="#B28B67"/>
<path d="M241.885 93.4879C241.885 93.4879 241.885 93.5339 241.885 93.4879C241.655 94.086 238.248 104.944 234.841 104.07C232.078 103.38 227.796 99.8832 226.692 99.009C226.599 98.917 226.415 99.009 226.369 99.147L224.159 115.848C224.159 115.94 224.021 116.032 223.929 115.986L211.13 112.95L210.439 112.858C210.347 112.812 209.933 112.95 209.979 112.858L220.384 92.9818L220.476 92.8438L224.159 90.0832C224.159 90.0832 222.916 82.4918 229.454 85.3903C229.454 85.3903 234.058 81.0195 235.854 81.1575C236.821 81.2495 239.905 82.4918 242.76 82.0777C242.806 82.3537 242.852 82.6758 242.852 82.9979C242.852 83.1359 242.852 83.2739 242.852 83.4119C243.266 91.2335 242.023 93.3039 241.885 93.4879Z" fill="url(#paint0_linear)"/>
<path d="M253.534 111.488H233.922L224.252 137.356L249.011 139.553L257.862 119.853L253.534 111.488Z" fill="#353535"/>
<path d="M251.042 139.553H270.385L279.961 113.647L255.503 111.488L246.812 131.188L251.042 139.553Z" fill="#353535"/>
<path d="M249.884 137.253H268.561L278.58 111.221C278.58 111.221 268.173 107.261 255.321 111.221C255.321 111.221 244.293 106.645 236.061 111.221L233.459 116.989L249.884 137.253Z" fill="#E7E7E7"/>
<path d="M255.56 111.488L246.812 130.812" stroke="#353535" stroke-miterlimit="10"/>
<path d="M269.857 150.73L261.345 144.912L259.395 147.76L267.908 153.579L269.857 150.73Z" fill="#B5B1B1"/>
<path d="M260.349 148.1L260.21 148.331L257.264 153.115C255.422 147.962 253.581 143.408 251.785 139.405C251.785 139.405 251.785 139.359 251.739 139.359C251.371 138.577 251.048 137.84 250.68 137.104C250.634 137.012 250.634 136.966 250.588 136.874C249.299 134.16 248.01 131.721 246.766 129.513C240.781 119.069 235.394 114.146 231.711 111.799C231.067 111.385 230.422 111.017 229.915 110.787C227.89 109.775 226.739 109.729 226.739 109.729L217.853 111.385C217.853 111.385 217.807 111.385 217.761 111.385C217.761 111.385 217.715 111.385 217.669 111.385C217.669 111.385 217.669 111.385 217.623 111.385C217.623 111.385 217.623 111.385 217.577 111.385H217.53H217.484C217.484 111.385 217.438 111.385 217.3 111.431C217.3 111.431 217.3 111.431 217.254 111.431C217.208 111.431 217.162 111.431 217.116 111.477C217.116 111.477 217.116 111.477 217.07 111.477H217.024C217.024 111.477 217.024 111.477 216.978 111.477C216.978 111.477 216.978 111.477 216.932 111.477H216.886H216.84H216.794C216.748 111.477 216.702 111.477 216.656 111.477C216.61 111.477 216.61 111.477 216.564 111.477H216.518H216.472C216.379 111.477 216.287 111.523 216.103 111.523C215.965 111.569 215.781 111.569 215.597 111.615C215.597 111.615 215.597 111.615 215.551 111.615C215.505 111.615 215.321 111.661 215.136 111.707C214.906 111.753 214.676 111.799 214.4 111.845C214.216 111.891 214.077 111.891 214.031 111.937C213.985 111.937 213.939 111.937 213.939 111.937C213.847 111.937 213.801 111.983 213.709 111.983C213.571 111.983 213.479 112.029 213.387 112.029C213.341 112.029 213.341 112.029 213.295 112.029H213.249C213.203 112.029 213.203 112.029 213.203 112.029C213.203 112.029 213.203 112.029 213.157 112.029C212.834 112.075 212.466 112.167 212.098 112.213C212.006 112.213 211.96 112.259 211.867 112.259C211.407 112.352 210.947 112.49 210.486 112.628C210.394 112.674 210.302 112.674 210.21 112.72C197.088 117.09 197.365 139.083 199.851 156.704C200.219 159.097 200.587 161.443 201.002 163.652C201.048 163.836 201.094 164.02 201.094 164.25C202.751 173.129 204.593 179.571 204.593 179.571C213.847 193.833 247.181 177.638 247.181 177.638C247.181 177.638 241.656 166.826 240.091 164.526C238.571 162.225 241.242 151.413 241.242 151.413C241.242 151.413 254.732 169.127 257.816 167.608C260.809 166.136 267.071 153.714 267.439 152.977V152.931L260.349 148.1Z" fill="url(#paint1_linear)"/>
<path d="M294.694 263.767L281.803 267.494L280.882 267.77L280.053 268L274.989 247.664L271.674 264.687L260.808 262.341L259.979 262.157L259.565 262.065L258.782 261.927L258.69 261.881H258.598L262.373 225.58C262.834 212.651 262.419 203.035 262.419 203.035C262.419 203.035 225.633 202.207 210.117 201.747C208.828 201.701 207.677 201.655 206.71 201.655C205.789 201.609 205.052 201.609 204.5 201.563C203.993 201.563 203.625 201.517 203.441 201.517C203.257 201.517 203.119 201.425 202.981 201.287C202.888 201.195 202.842 201.103 202.75 200.965C201.001 197.744 203.165 181.549 203.395 179.893C203.395 179.801 203.395 179.755 203.395 179.755L205.145 179.663L207.401 179.571L245.937 177.822C245.937 177.822 280.237 190.245 285.44 193.925C290.596 197.606 292.899 230.272 292.899 230.272L292.76 230.411L294.694 263.767Z" fill="url(#paint2_linear)"/>
<path opacity="0.23" d="M279.961 267.908L276.923 213.433C276.923 212.007 276.831 210.719 276.739 209.568C276.647 208.418 276.508 207.452 276.278 206.624C276.278 206.624 276.278 202.069 275.818 201.609L275.219 201.241L263.847 194.753L274.989 203.725L274.897 203.955L275.219 206.532L271.674 264.687L274.897 247.664L279.961 267.908Z" fill="black"/>
<path opacity="0.23" d="M202.981 183.711C202.981 183.711 201.185 200.643 202.797 200.919C204.408 201.195 212.604 200.919 212.604 200.919C212.604 200.919 208.598 198.894 209.058 183.711" fill="black" fill-opacity="0.9"/>
<path d="M233 132.641L230.237 128.041C230.237 128.041 231.158 132.641 232.079 132.641" fill="black" fill-opacity="0.5"/>
<path d="M242.852 82.952C242.852 82.6299 242.806 82.3538 242.76 82.0318C239.906 82.4459 236.821 81.2036 235.854 81.1116C234.059 80.9736 229.454 85.3444 229.454 85.3444C222.917 82.3999 224.16 90.0373 224.16 90.0373L221.029 92.3838L220.476 92.7979L209.979 112.858C209.979 112.904 209.979 112.904 210.025 112.904C201.508 115.71 198.653 126.246 198.331 138.163C198.147 144.558 198.745 151.321 199.62 157.486H199.804C200.126 159.695 200.495 161.811 200.863 163.79C200.909 163.974 200.955 164.158 200.955 164.388H206.204C204.684 164.388 202.52 138.163 202.52 138.163C202.566 135.356 202.659 132.642 202.797 130.065C202.935 127.765 203.073 125.464 203.856 123.302C204.5 121.507 205.513 119.897 206.526 118.333C207.171 117.321 211.821 113.64 211.867 112.444C211.867 112.444 211.821 112.444 211.729 112.49C211.913 112.306 212.051 112.076 212.189 111.846C213.018 110.649 213.8 109.453 214.629 108.257C216.287 105.818 217.944 103.38 219.049 100.573C219.878 98.457 220.615 96.2946 221.075 94.0401C222.088 93.396 224.114 91.5096 224.62 90.6815C224.988 89.9913 225.357 89.3472 225.725 88.6571C225.955 88.289 226.139 87.8749 226.508 87.5989C227.29 86.9547 228.441 87.0468 229.454 86.8167C231.25 86.4486 232.585 85.0224 234.243 84.2402C235.578 83.5961 237.097 83.366 238.571 83.5961C239.537 83.7341 240.504 84.1022 241.517 84.0102C242.024 83.9642 242.576 83.7801 242.944 83.4581C242.898 83.228 242.898 83.09 242.852 82.952Z" fill="black" fill-opacity="0.23"/>
<path d="M221.49 76.0505C215.228 81.9397 218.267 89.6999 220.569 92.8438L224.252 89.8532C223.331 84.1481 227.398 84.4088 229.547 85.2523C230.836 83.596 234.228 81.8017 235.762 81.1115C244.971 84.2401 247.887 79.0411 248.194 76.0505C247.503 76.5106 246.582 76.9707 236.453 72.3698C228.35 68.6891 223.101 73.29 221.49 76.0505Z" fill="#2B193D"/>
<path d="M262.236 146.352L264.676 151.183C264.906 151.643 265.597 151.689 265.873 151.275C267.116 149.573 269.695 146.122 271.168 144.834C273.148 143.178 280.376 137.657 276.693 130.755C276.463 130.341 275.864 130.249 275.542 130.617L270.8 135.678C270.523 135.954 270.109 136 269.833 135.724C269.511 135.448 269.096 134.988 268.544 134.16C268.221 133.7 267.485 133.746 267.301 134.298C266.794 135.724 266.15 137.933 266.656 139.221C266.748 139.451 266.748 139.727 266.564 139.957L262.236 145.57C262.144 145.8 262.098 146.122 262.236 146.352Z" fill="#B28B67"/>
<path d="M221.028 92.3837L220.476 92.7977L220.982 91.8315C221.028 91.9696 221.028 92.1996 221.028 92.3837Z" fill="black"/>
<path d="M245.799 157.486L252.705 165.17L256.941 165.308C256.941 165.308 247.226 158.406 248.423 157.486C249.62 156.566 245.799 157.486 245.799 157.486Z" fill="black" fill-opacity="0.5"/>
<path d="M271.213 201.195H76V211.317H271.213V201.195Z" fill="url(#paint3_linear)"/>
<path d="M271.213 164.388H76V183.711H271.213V164.388Z" fill="url(#paint4_linear)"/>
<path d="M271.213 138.163H76V157.486H271.213V138.163Z" fill="url(#paint5_linear)"/>
<path d="M242.76 82.0316C239.905 82.4457 236.821 81.2034 235.854 81.1114C234.058 80.9734 229.454 85.3443 229.454 85.3443C222.916 82.3997 224.159 90.0372 224.159 90.0372L220.476 92.7977L220.983 91.8315L221.213 91.3714C221.259 91.3254 221.259 91.2794 221.213 91.2334C221.075 90.9113 220.568 89.4851 220.154 87.5987C220.66 86.5865 221.259 85.6663 221.995 84.7921C226.461 79.5011 234.427 78.1669 241.102 80.0532C241.563 80.1912 242.023 80.3753 242.392 80.6053C242.576 81.0194 242.668 81.5255 242.76 82.0316Z" fill="#2B193D"/>
<path d="M221.213 91.3714L220.983 91.8315L220.477 92.7977L220.431 92.8437C219.924 92.1535 219.51 91.4634 219.187 90.8193C219.141 90.4512 219.188 90.1291 219.28 89.7611C219.51 89.0249 219.786 88.2888 220.154 87.5986C220.569 89.485 221.121 90.9113 221.213 91.2333C221.259 91.2333 221.259 91.3254 221.213 91.3714Z" fill="#2B193D"/>
<path d="M243.497 81.8938C243.267 81.9398 243.036 81.9859 242.806 82.0319C242.714 81.5258 242.622 81.0197 242.438 80.5596C242.944 80.8816 243.359 81.3417 243.497 81.8938Z" fill="#2B193D"/>
<path d="M233.135 77.4307L243.128 79.6921V81.5013L242.663 81.7274L241.037 80.5967L233.6 80.3706L225.466 82.1797L219.191 90.7733L218.727 89.6425L219.191 86.7026L223.839 79.0137L233.135 77.4307Z" fill="#2B193D"/>
<path d="M220.338 92.8436L224.021 89.853" stroke="#2B193D"/>
<path d="M248.607 210.397H243.128V132.642H231.894L232.032 210.397H226.139C225.356 210.397 224.712 211.041 224.712 211.823V215.366C224.712 216.148 225.356 216.792 226.139 216.792H232.078V227.282L243.128 229.214V216.792H248.607C249.39 216.792 250.034 216.148 250.034 215.366V211.823C250.034 211.041 249.39 210.397 248.607 210.397Z" fill="#221A2B"/>
<path d="M117.851 210.397H112.372V132.642H101.138V210.397H95.3833C94.6006 210.397 93.9561 211.041 93.9561 211.823V215.366C93.9561 216.148 94.6006 216.792 95.3833 216.792H101.138V222.267L112.372 221.209V216.838H117.851C118.634 216.838 119.279 216.194 119.279 215.412V211.869C119.279 211.041 118.634 210.397 117.851 210.397Z" fill="#221A2B"/>
<path d="M57.0527 220.1L57.1846 209.295H33.01V216.542L57.0527 220.1Z" fill="#221A2B"/>
<path d="M38.0642 209.514V175.913L52.1294 176.133V209.734L38.0642 209.514Z" fill="#221A2B"/>
<path d="M37.1855 176.572H52.9649C54.1956 176.572 55.2065 175.562 55.2065 174.332V172.18C55.2065 170.95 54.1956 169.939 52.9649 169.939H37.1855C35.9547 169.939 34.9438 170.95 34.9438 172.18V174.332C34.9878 175.562 35.9547 176.572 37.1855 176.572Z" fill="#221A2B"/>
<path d="M53.0089 57.979C53.888 60.6144 49.8003 65.446 49.8003 65.446V171.741H40.2623V65.446C40.2623 65.446 36.1746 60.6144 37.0537 57.979H53.0089Z" fill="#221A2B"/>
<path d="M41.5807 43.9233H48.6133V49.6334H41.5807V43.9233Z" fill="#221A2B"/>
<path opacity="0.9" d="M44.7461 6.80811L32.0873 17.1301L39.999 38.6525H49.8008L57.4927 16.9105L44.7461 6.80811Z" fill="url(#paint6_linear)"/>
<path d="M57.4927 17.1304H31.9994" stroke="#221A2B" stroke-width="2" stroke-miterlimit="10"/>
<path d="M46.5039 39.0919L51.7783 17.3937L44.7457 7.02783" stroke="#221A2B" stroke-width="2" stroke-miterlimit="10"/>
<path d="M43.0753 39.0919L37.8009 17.3937L44.8335 7.02783" stroke="#221A2B" stroke-width="2" stroke-miterlimit="10"/>
<path d="M44.7452 7.02759C43.5314 7.02759 42.5475 6.04433 42.5475 4.83142C42.5475 3.61851 43.5314 2.63525 44.7452 2.63525C45.9589 2.63525 46.9429 3.61851 46.9429 4.83142C46.9429 6.04433 45.9589 7.02759 44.7452 7.02759Z" fill="#221A2B"/>
<path d="M44.7461 2.6354V0" stroke="#221A2B" stroke-width="2" stroke-miterlimit="10"/>
<path d="M58.0635 57.9787H32.1307L36.5261 49.6333H53.2285L58.0635 57.9787Z" fill="#221A2B"/>
<path d="M52.3501 43.9676H38.153L40.5705 38.6528H49.7129L52.3501 43.9676Z" fill="#221A2B"/>
<path d="M-297 267.085C-296.585 254.902 -18.2355 174.792 308.635 238.068C438.023 263.171 575.539 313.969 707 406.926L-294.014 407L-297 267.085Z" fill="url(#paint7_linear)"/>
<defs>
<linearGradient id="paint0_linear" x1="226.456" y1="81.1543" x2="219.196" y2="111.03" gradientUnits="userSpaceOnUse">
<stop stop-color="#B28B67"/>
<stop offset="1" stop-color="#80644A"/>
</linearGradient>
<linearGradient id="paint1_linear" x1="232.974" y1="109.729" x2="229.322" y2="145.075" gradientUnits="userSpaceOnUse">
<stop stop-color="#340A55"/>
<stop offset="1" stop-color="#1D0426"/>
</linearGradient>
<linearGradient id="paint2_linear" x1="232.769" y1="186.942" x2="286.384" y2="222.864" gradientUnits="userSpaceOnUse">
<stop stop-color="#342044"/>
<stop offset="1" stop-color="#1C1125"/>
</linearGradient>
<linearGradient id="paint3_linear" x1="173.607" y1="201.195" x2="173.607" y2="211.317" gradientUnits="userSpaceOnUse">
<stop stop-color="#2F1716"/>
<stop offset="1" stop-color="#442220"/>
</linearGradient>
<linearGradient id="paint4_linear" x1="173.607" y1="164.388" x2="173.607" y2="183.711" gradientUnits="userSpaceOnUse">
<stop stop-color="#2F1716"/>
<stop offset="1" stop-color="#442220"/>
</linearGradient>
<linearGradient id="paint5_linear" x1="173.607" y1="138.163" x2="173.607" y2="157.486" gradientUnits="userSpaceOnUse">
<stop stop-color="#2F1716"/>
<stop offset="1" stop-color="#442220"/>
</linearGradient>
<linearGradient id="paint6_linear" x1="57.4812" y1="22.7306" x2="32.0684" y2="22.7306" gradientUnits="userSpaceOnUse">
<stop offset="0.1778" stop-color="#F5CE73"/>
<stop offset="0.559" stop-color="#EFE0AB"/>
</linearGradient>
<linearGradient id="paint7_linear" x1="204.921" y1="520.807" x2="205.005" y2="213.96" gradientUnits="userSpaceOnUse">
<stop stop-color="#361778"/>
<stop offset="1" stop-color="#190632"/>
</linearGradient>
</defs>
</svg>
