<svg width="1438" height="1023" viewBox="0 0 1438 1023" fill="none" xmlns="http://www.w3.org/2000/svg">
<path d="M573.498 566.077C570.896 554.577 570.096 534.577 594.713 533.277H594.813C595.914 533.477 616.828 536.777 621.832 550.777C620.931 550.277 619.93 549.877 619.03 549.577C604.52 545.477 587.208 548.377 577.501 559.877C575.9 561.777 574.599 563.877 573.498 566.077Z" fill="#B28B67"/>
<path d="M620.731 578.877C620.731 578.877 620.731 578.977 620.731 578.877C620.231 580.177 612.825 603.777 605.42 601.877C599.416 600.377 590.11 592.777 587.708 590.877C587.508 590.677 587.108 590.877 587.007 591.177L582.204 627.477C582.204 627.677 581.904 627.877 581.704 627.777L553.884 621.177L552.383 620.977C552.183 620.877 551.283 621.177 551.383 620.977L573.998 577.777L574.199 577.477L582.204 571.477C582.204 571.477 579.502 554.977 593.712 561.277C593.712 561.277 603.719 551.777 607.622 552.077C609.723 552.277 616.428 554.977 622.632 554.077C622.732 554.677 622.832 555.377 622.832 556.077C622.832 556.377 622.832 556.677 622.832 556.977C623.733 573.977 621.031 578.477 620.731 578.877Z" fill="url(#paint0_linear)"/>
<path d="M646.049 618H603.422L582.405 674.224L636.218 679L655.455 636.183L646.049 618Z" fill="#353535"/>
<path d="M640.633 679H682.676L703.489 622.692L650.329 618L631.439 660.817L640.633 679Z" fill="#353535"/>
<path d="M638.118 674H678.713L700.487 617.42C700.487 617.42 677.869 608.812 649.934 617.42C649.934 617.42 625.965 607.475 608.073 617.42L602.419 629.956L638.118 674Z" fill="#E7E7E7"/>
<path d="M650.452 618L631.439 660" stroke="#353535" stroke-miterlimit="10"/>
<path d="M681.525 703.294L663.023 690.646L658.786 696.837L677.288 709.484L681.525 703.294Z" fill="#B5B1B1"/>
<path d="M660.859 697.577L660.559 698.077L654.155 708.477C650.152 697.277 646.149 687.377 642.246 678.677C642.246 678.677 642.246 678.577 642.146 678.577C641.346 676.877 640.645 675.277 639.845 673.677C639.745 673.477 639.745 673.377 639.644 673.177C636.843 667.277 634.041 661.977 631.339 657.177C618.33 634.477 606.622 623.777 598.616 618.677C597.215 617.777 595.814 616.977 594.713 616.477C590.31 614.277 587.808 614.177 587.808 614.177L568.495 617.777C568.495 617.777 568.395 617.777 568.295 617.777C568.295 617.777 568.195 617.777 568.095 617.777C568.095 617.777 568.095 617.777 567.995 617.777C567.995 617.777 567.995 617.777 567.895 617.777H567.795H567.695C567.695 617.777 567.594 617.777 567.294 617.877C567.294 617.877 567.294 617.877 567.194 617.877C567.094 617.877 566.994 617.877 566.894 617.977C566.894 617.977 566.894 617.977 566.794 617.977H566.694C566.694 617.977 566.694 617.977 566.594 617.977C566.594 617.977 566.594 617.977 566.494 617.977H566.394H566.294H566.193C566.093 617.977 565.993 617.977 565.893 617.977C565.793 617.977 565.793 617.977 565.693 617.977H565.593H565.493C565.293 617.977 565.093 618.077 564.692 618.077C564.392 618.177 563.992 618.177 563.592 618.277C563.592 618.277 563.592 618.277 563.492 618.277C563.392 618.277 562.991 618.377 562.591 618.477C562.091 618.577 561.59 618.677 560.99 618.777C560.59 618.877 560.289 618.877 560.189 618.977C560.089 618.977 559.989 618.977 559.989 618.977C559.789 618.977 559.689 619.077 559.489 619.077C559.189 619.077 558.988 619.177 558.788 619.177C558.688 619.177 558.688 619.177 558.588 619.177H558.488C558.388 619.177 558.388 619.177 558.388 619.177C558.388 619.177 558.388 619.177 558.288 619.177C557.587 619.277 556.787 619.477 555.986 619.577C555.786 619.577 555.686 619.677 555.486 619.677C554.485 619.877 553.485 620.177 552.484 620.477C552.284 620.577 552.084 620.577 551.884 620.677C523.364 630.177 523.964 677.977 529.368 716.277C530.168 721.477 530.969 726.577 531.87 731.377C531.97 731.777 532.07 732.177 532.07 732.677C535.672 751.977 539.675 765.977 539.675 765.977C559.789 796.977 632.239 761.777 632.239 761.777C632.239 761.777 620.231 738.277 616.829 733.277C613.526 728.277 619.33 704.777 619.33 704.777C619.33 704.777 648.651 743.277 655.355 739.977C661.86 736.777 675.469 709.777 676.27 708.177V708.077L660.859 697.577Z" fill="url(#paint1_linear)"/>
<path d="M735.511 948.977L707.491 957.077L705.49 957.677L703.689 958.177L692.681 913.977L685.476 950.977L661.86 945.877L660.058 945.477L659.158 945.277L657.457 944.977L657.256 944.877H657.056L665.262 865.977C666.263 837.877 665.362 816.977 665.362 816.977C665.362 816.977 585.407 815.177 551.683 814.177C548.881 814.077 546.379 813.977 544.278 813.977C542.277 813.877 540.676 813.877 539.475 813.777C538.374 813.777 537.573 813.677 537.173 813.677C536.773 813.677 536.473 813.477 536.172 813.177C535.972 812.977 535.872 812.777 535.672 812.477C531.869 805.477 536.573 770.277 537.073 766.677C537.073 766.477 537.073 766.377 537.073 766.377L540.876 766.177L545.779 765.977L629.537 762.177C629.537 762.177 704.089 789.177 715.397 797.177C726.605 805.177 731.608 876.177 731.608 876.177L731.308 876.477L735.511 948.977Z" fill="url(#paint2_linear)"/>
<path opacity="0.23" d="M703.488 957.978L696.884 839.578C696.884 836.478 696.683 833.678 696.483 831.178C696.283 828.678 695.983 826.578 695.483 824.778C695.483 824.778 695.483 814.878 694.482 813.878L693.181 813.078L668.464 798.978L692.681 818.478L692.481 818.978L693.181 824.578L685.476 950.978L692.481 913.978L703.488 957.978Z" fill="black"/>
<path opacity="0.23" d="M536.172 774.978C536.172 774.978 532.27 811.778 535.772 812.378C539.275 812.978 557.087 812.378 557.087 812.378C557.087 812.378 548.381 807.978 549.382 774.978" fill="black" fill-opacity="0.9"/>
<path d="M601.418 663.978L595.414 653.978C595.414 653.978 597.415 663.978 599.416 663.978" fill="black" fill-opacity="0.5"/>
<path d="M622.832 555.977C622.832 555.277 622.732 554.677 622.632 553.977C616.428 554.877 609.723 552.177 607.622 551.977C603.719 551.677 593.712 561.177 593.712 561.177C579.502 554.777 582.204 571.377 582.204 571.377L575.399 576.477L574.199 577.377L551.383 620.977C551.383 621.077 551.383 621.077 551.483 621.077C532.97 627.177 526.766 650.077 526.065 675.977C525.665 689.877 526.966 704.577 528.867 717.977H529.267C529.968 722.777 530.768 727.377 531.569 731.677C531.669 732.077 531.769 732.477 531.769 732.977H543.177C539.875 732.977 535.172 675.977 535.172 675.977C535.272 669.877 535.472 663.977 535.772 658.377C536.072 653.377 536.372 648.377 538.074 643.677C539.475 639.777 541.676 636.277 543.878 632.877C545.279 630.677 555.386 622.677 555.486 620.077C555.486 620.077 555.386 620.077 555.185 620.177C555.586 619.777 555.886 619.277 556.186 618.777C557.987 616.177 559.689 613.577 561.49 610.977C565.092 605.677 568.695 600.377 571.096 594.277C572.898 589.677 574.499 584.977 575.5 580.077C577.701 578.677 582.104 574.577 583.205 572.777C584.005 571.277 584.806 569.877 585.607 568.377C586.107 567.577 586.507 566.677 587.308 566.077C589.009 564.677 591.511 564.877 593.712 564.377C597.615 563.577 600.517 560.477 604.119 558.777C607.021 557.377 610.324 556.877 613.526 557.377C615.627 557.677 617.729 558.477 619.93 558.277C621.031 558.177 622.232 557.777 623.033 557.077C622.932 556.577 622.932 556.277 622.832 555.977Z" fill="black" fill-opacity="0.23"/>
<path d="M576.4 540.977C562.791 553.777 569.395 570.644 574.399 577.477L582.404 570.977C580.403 558.577 589.242 559.144 593.912 560.977C596.714 557.377 604.086 553.477 607.422 551.977C627.436 558.777 633.773 547.477 634.44 540.977C632.939 541.977 630.938 542.977 608.923 532.977C591.31 524.977 579.902 534.977 576.4 540.977Z" fill="#2B193D"/>
<path d="M664.961 693.777L670.265 704.277C670.765 705.277 672.266 705.377 672.867 704.477C675.569 700.777 681.173 693.277 684.375 690.477C688.678 686.877 704.389 674.877 696.383 659.877C695.883 658.977 694.582 658.777 693.881 659.577L683.574 670.577C682.974 671.177 682.073 671.277 681.473 670.677C680.772 670.077 679.872 669.077 678.671 667.277C677.97 666.277 676.369 666.377 675.969 667.577C674.868 670.677 673.467 675.477 674.568 678.277C674.768 678.777 674.768 679.377 674.368 679.877L664.961 692.077C664.761 692.577 664.661 693.277 664.961 693.777Z" fill="#B28B67"/>
<path d="M575.398 576.477L574.198 577.377L575.298 575.277C575.398 575.577 575.398 576.077 575.398 576.477Z" fill="black"/>
<path d="M629.236 717.978L644.247 734.678L653.453 734.978C653.453 734.978 632.338 719.978 634.94 717.978C637.542 715.978 629.236 717.978 629.236 717.978Z" fill="black" fill-opacity="0.5"/>
<path d="M684.475 812.978H260.181V834.978H684.475V812.978Z" fill="url(#paint3_linear)"/>
<path d="M684.475 732.978H260.181V774.978H684.475V732.978Z" fill="url(#paint4_linear)"/>
<path d="M684.475 675.978H260.181V717.978H684.475V675.978Z" fill="url(#paint5_linear)"/>
<path d="M622.632 553.978C616.428 554.878 609.723 552.178 607.622 551.978C603.719 551.678 593.712 561.178 593.712 561.178C579.502 554.778 582.204 571.378 582.204 571.378L574.199 577.378L575.299 575.278L575.8 574.278C575.9 574.178 575.9 574.078 575.8 573.978C575.499 573.278 574.399 570.178 573.498 566.078C574.599 563.878 575.9 561.878 577.501 559.978C587.208 548.478 604.52 545.578 619.03 549.678C620.03 549.978 621.031 550.378 621.832 550.878C622.232 551.778 622.432 552.878 622.632 553.978Z" fill="#2B193D"/>
<path d="M575.8 574.278L575.299 575.278L574.199 577.378L574.099 577.478C572.998 575.978 572.097 574.478 571.397 573.078C571.297 572.278 571.397 571.578 571.597 570.778C572.097 569.178 572.698 567.578 573.498 566.078C574.399 570.178 575.6 573.278 575.8 573.978C575.9 573.978 575.9 574.178 575.8 574.278Z" fill="#2B193D"/>
<path d="M624.233 553.677C623.733 553.777 623.232 553.877 622.732 553.977C622.532 552.877 622.332 551.777 621.932 550.777C623.032 551.477 623.933 552.477 624.233 553.677Z" fill="#2B193D"/>
<path d="M601.713 543.978L623.433 548.893V552.825L622.423 553.317L618.887 550.859L602.723 550.367L585.044 554.3L571.406 572.978L570.396 570.52L571.406 564.13L581.508 547.418L601.713 543.978Z" fill="#2B193D"/>
<path d="M573.898 577.478L581.904 570.978" stroke="#2B193D"/>
<path d="M635.341 832.978H623.433V663.978H599.016L599.316 832.978H586.507C584.806 832.978 583.405 834.378 583.405 836.078V843.778C583.405 845.478 584.806 846.878 586.507 846.878H599.416V869.678L623.433 873.878V846.878H635.341C637.042 846.878 638.443 845.478 638.443 843.778V836.078C638.443 834.378 637.042 832.978 635.341 832.978Z" fill="#221A2B"/>
<path d="M351.144 832.978H339.236V663.978H314.819V832.978H302.31C300.609 832.978 299.208 834.378 299.208 836.078V843.778C299.208 845.478 300.609 846.878 302.31 846.878H314.819V858.778L339.236 856.478V846.978H351.144C352.845 846.978 354.246 845.578 354.246 843.878V836.178C354.246 834.378 352.845 832.978 351.144 832.978Z" fill="#221A2B"/>
<path d="M157.302 880.1L157.001 855.5H212.04V872L157.302 880.1Z" fill="#221A2B"/>
<path d="M200.532 856V779.5L168.509 780V856.5L200.532 856Z" fill="#221A2B"/>
<path d="M202.533 781H166.608C163.806 781 161.504 778.7 161.504 775.9V771C161.504 768.2 163.806 765.9 166.608 765.9H202.533C205.335 765.9 207.636 768.2 207.636 771V775.9C207.536 778.7 205.335 781 202.533 781Z" fill="#221A2B"/>
<path d="M166.508 511C164.507 517 173.813 528 173.813 528V770H195.528V528C195.528 528 204.835 517 202.833 511H166.508Z" fill="#221A2B"/>
<path d="M192.526 479H176.515V492H192.526V479Z" fill="#221A2B"/>
<path opacity="0.9" d="M185.32 394.5L214.14 418L196.127 467H173.812L156.3 417.5L185.32 394.5Z" fill="url(#paint6_linear)"/>
<path d="M156.3 418H214.34" stroke="#221A2B" stroke-width="2" stroke-miterlimit="10"/>
<path d="M181.318 468L169.31 418.6L185.321 395" stroke="#221A2B" stroke-width="2" stroke-miterlimit="10"/>
<path d="M189.124 468L201.132 418.6L185.121 395" stroke="#221A2B" stroke-width="2" stroke-miterlimit="10"/>
<path d="M185.321 395C188.084 395 190.324 392.761 190.324 390C190.324 387.239 188.084 385 185.321 385C182.558 385 180.317 387.239 180.317 390C180.317 392.761 182.558 395 185.321 395Z" fill="#221A2B"/>
<path d="M185.321 385V379" stroke="#221A2B" stroke-width="2" stroke-miterlimit="10"/>
<path d="M155 511H214.041L204.034 492H166.008L155 511Z" fill="#221A2B"/>
<path d="M168.009 479.1H200.331L194.827 467H174.013L168.009 479.1Z" fill="#221A2B"/>
<path d="M-3.00195 923.001C-2.44138 906.484 373.817 797.87 815.663 883.66C990.563 917.695 1176.45 986.568 1354.15 1112.6L1.03419 1112.7L-3.00195 923.001Z" fill="url(#paint7_linear)"/>
<defs>
<linearGradient id="paint0_linear" x1="587.195" y1="552.07" x2="571.417" y2="617.005" gradientUnits="userSpaceOnUse">
<stop stop-color="#B28B67"/>
<stop offset="1" stop-color="#80644A"/>
</linearGradient>
<linearGradient id="paint1_linear" x1="601.361" y1="614.177" x2="593.423" y2="691.001" gradientUnits="userSpaceOnUse">
<stop stop-color="#340A55"/>
<stop offset="1" stop-color="#1D0426"/>
</linearGradient>
<linearGradient id="paint2_linear" x1="600.917" y1="782" x2="717.448" y2="860.075" gradientUnits="userSpaceOnUse">
<stop stop-color="#342044"/>
<stop offset="1" stop-color="#261226"/>
</linearGradient>
<linearGradient id="paint3_linear" x1="472.328" y1="812.978" x2="472.328" y2="834.978" gradientUnits="userSpaceOnUse">
<stop stop-color="#2F1716"/>
<stop offset="1" stop-color="#442220"/>
</linearGradient>
<linearGradient id="paint4_linear" x1="472.328" y1="732.978" x2="472.328" y2="774.978" gradientUnits="userSpaceOnUse">
<stop stop-color="#2F1716"/>
<stop offset="1" stop-color="#442220"/>
</linearGradient>
<linearGradient id="paint5_linear" x1="472.328" y1="675.978" x2="472.328" y2="717.978" gradientUnits="userSpaceOnUse">
<stop stop-color="#2F1716"/>
<stop offset="1" stop-color="#442220"/>
</linearGradient>
<linearGradient id="paint6_linear" x1="156.326" y1="430.751" x2="214.183" y2="430.751" gradientUnits="userSpaceOnUse">
<stop offset="0.1778" stop-color="#F5CE73"/>
<stop offset="0.559" stop-color="#EFE0AB"/>
</linearGradient>
<linearGradient id="paint7_linear" x1="675.469" y1="1267" x2="675.583" y2="850.974" gradientUnits="userSpaceOnUse">
<stop stop-color="#361778"/>
<stop offset="1" stop-color="#190632"/>
</linearGradient>
</defs>
</svg>
