<svg width="1438" height="1020" viewBox="0 0 1438 1020" fill="none" xmlns="http://www.w3.org/2000/svg">
<rect x="46.168" y="-85.9766" width="29.9658" height="337" rx="14.9829" transform="rotate(-43.0801 46.168 -85.9766)" fill="url(#paint0_linear)" fill-opacity="0.65"/>
<rect x="926" y="-158.935" width="17.664" height="337" rx="8.832" transform="rotate(-43.0801 926 -158.935)" fill="url(#paint1_linear)" fill-opacity="0.2"/>
<rect x="595" y="-65.3086" width="24.4378" height="337" rx="12.2189" transform="rotate(-43.0801 595 -65.3086)" fill="url(#paint2_linear)" fill-opacity="0.8"/>
<rect x="216.212" y="10.292" width="12.9907" height="255.629" rx="6.49534" transform="rotate(-43.0801 216.212 10.292)" fill="url(#paint3_linear)" fill-opacity="0.8"/>
<rect x="-56.1646" y="321.156" width="10.4777" height="255.629" rx="5.23883" transform="rotate(-43.0801 -56.1646 321.156)" fill="url(#paint4_linear)" fill-opacity="0.8"/>
<rect x="889" y="15.873" width="12.9907" height="412.517" rx="6.49534" transform="rotate(-43.0801 889 15.873)" fill="url(#paint5_linear)" fill-opacity="0.7"/>
<rect x="545" y="219.873" width="12.9907" height="412.517" rx="6.49534" transform="rotate(-43.0801 545 219.873)" fill="url(#paint6_linear)" fill-opacity="0.8"/>
<rect x="480" y="79.4072" width="3.52489" height="412.517" rx="1.76245" transform="rotate(-43.0801 480 79.4072)" fill="url(#paint7_linear)" fill-opacity="0.76"/>
<defs>
<linearGradient id="paint0_linear" x1="61.1508" y1="-85.9766" x2="61.1508" y2="251.023" gradientUnits="userSpaceOnUse">
<stop offset="0.281029" stop-color="#3A2CA3" stop-opacity="0.23"/>
<stop offset="1" stop-color="#9D499A"/>
</linearGradient>
<linearGradient id="paint1_linear" x1="934.832" y1="-158.935" x2="934.832" y2="178.065" gradientUnits="userSpaceOnUse">
<stop offset="0.281029" stop-color="#3A2CA3" stop-opacity="0.23"/>
<stop offset="1" stop-color="#9D499A"/>
</linearGradient>
<linearGradient id="paint2_linear" x1="607.219" y1="-65.3086" x2="607.219" y2="271.691" gradientUnits="userSpaceOnUse">
<stop offset="0.281029" stop-color="#3A2CA3" stop-opacity="0.23"/>
<stop offset="1" stop-color="#9D499A"/>
</linearGradient>
<linearGradient id="paint3_linear" x1="222.708" y1="10.292" x2="222.708" y2="265.921" gradientUnits="userSpaceOnUse">
<stop offset="0.281029" stop-color="#3A2CA3" stop-opacity="0.08"/>
<stop offset="1" stop-color="#9D499A"/>
</linearGradient>
<linearGradient id="paint4_linear" x1="-50.9257" y1="321.156" x2="-50.9257" y2="576.786" gradientUnits="userSpaceOnUse">
<stop offset="0.281029" stop-color="#3A2CA3" stop-opacity="0.08"/>
<stop offset="1" stop-color="#9D499A"/>
</linearGradient>
<linearGradient id="paint5_linear" x1="895.495" y1="15.873" x2="895.495" y2="428.39" gradientUnits="userSpaceOnUse">
<stop offset="0.0214288" stop-color="#3A2CA3" stop-opacity="0"/>
<stop offset="1" stop-color="#AE518B"/>
</linearGradient>
<linearGradient id="paint6_linear" x1="551.495" y1="219.873" x2="551.495" y2="632.39" gradientUnits="userSpaceOnUse">
<stop offset="0.0214288" stop-color="#3A2CA3" stop-opacity="0"/>
<stop offset="1" stop-color="#AE518B"/>
</linearGradient>
<linearGradient id="paint7_linear" x1="481.762" y1="79.4072" x2="481.762" y2="491.924" gradientUnits="userSpaceOnUse">
<stop offset="0.0214288" stop-color="#3A2CA3" stop-opacity="0"/>
<stop offset="1" stop-color="#AE518B"/>
</linearGradient>
</defs>
</svg>
