<svg width="352" height="433" viewBox="0 0 352 433" fill="none" xmlns="http://www.w3.org/2000/svg">
<rect x="187" y="73.3555" width="3.44887" height="206.912" rx="1.72444" transform="rotate(-43.0801 187 73.3555)" fill="url(#paint0_linear)" fill-opacity="0.5"/>
<rect x="37.8398" y="90.0117" width="3.44887" height="84.1628" rx="1.72444" transform="rotate(-43.0801 37.8398 90.0117)" fill="url(#paint1_linear)" fill-opacity="0.5"/>
<rect x="37.52" y="319.513" width="3.44887" height="155.142" rx="1.72444" transform="rotate(-43.0801 37.52 319.513)" fill="url(#paint2_linear)" fill-opacity="0.55"/>
<rect x="126.345" y="190.037" width="3.44887" height="248.319" rx="1.72444" transform="rotate(-43.0801 126.345 190.037)" fill="url(#paint3_linear)" fill-opacity="0.6"/>
<rect x="245.291" y="-0.0732422" width="8.92494" height="145.361" rx="4.46247" transform="rotate(-43.0801 245.291 -0.0732422)" fill="url(#paint4_linear)" fill-opacity="0.6"/>
<rect x="-153" y="58.0957" width="8.92494" height="283.41" rx="4.46247" transform="rotate(-43.0801 -153 58.0957)" fill="url(#paint5_linear)" fill-opacity="0.3"/>
<rect x="112" y="20.7852" width="5.542" height="133.719" rx="2.771" transform="rotate(-43.0801 112 20.7852)" fill="url(#paint6_linear)" fill-opacity="0.2"/>
<defs>
<linearGradient id="paint0_linear" x1="188.724" y1="73.3555" x2="188.724" y2="280.267" gradientUnits="userSpaceOnUse">
<stop offset="0.0214288" stop-color="#3A2CA3" stop-opacity="0"/>
<stop offset="1" stop-color="#AE518B"/>
</linearGradient>
<linearGradient id="paint1_linear" x1="39.5643" y1="90.0117" x2="39.5643" y2="174.175" gradientUnits="userSpaceOnUse">
<stop offset="0.0214288" stop-color="#3A2CA3" stop-opacity="0"/>
<stop offset="1" stop-color="#AE518B"/>
</linearGradient>
<linearGradient id="paint2_linear" x1="39.2445" y1="319.513" x2="39.2445" y2="474.655" gradientUnits="userSpaceOnUse">
<stop offset="0.0214288" stop-color="#3A2CA3" stop-opacity="0"/>
<stop offset="1" stop-color="#AE518B"/>
</linearGradient>
<linearGradient id="paint3_linear" x1="128.069" y1="190.037" x2="128.069" y2="438.355" gradientUnits="userSpaceOnUse">
<stop offset="0.0214288" stop-color="#3A2CA3" stop-opacity="0"/>
<stop offset="1" stop-color="#AE518B"/>
</linearGradient>
<linearGradient id="paint4_linear" x1="249.753" y1="-0.0732422" x2="249.753" y2="145.288" gradientUnits="userSpaceOnUse">
<stop offset="0.0214288" stop-color="#3A2CA3" stop-opacity="0"/>
<stop offset="1" stop-color="#AE518B"/>
</linearGradient>
<linearGradient id="paint5_linear" x1="-148.538" y1="58.0957" x2="-148.538" y2="341.506" gradientUnits="userSpaceOnUse">
<stop offset="0.0214288" stop-color="#3A2CA3" stop-opacity="0"/>
<stop offset="1" stop-color="#AE518B"/>
</linearGradient>
<linearGradient id="paint6_linear" x1="114.771" y1="20.7852" x2="114.771" y2="154.504" gradientUnits="userSpaceOnUse">
<stop offset="0.0214288" stop-color="#3A2CA3" stop-opacity="0"/>
<stop offset="1" stop-color="#AE518B"/>
</linearGradient>
</defs>
</svg>
