<svg width="677" height="420" viewBox="0 0 677 420" fill="none" xmlns="http://www.w3.org/2000/svg">
<path opacity="0.3" d="M519 279.9C575.83 279.9 621.9 233.83 621.9 177C621.9 120.17 575.83 74.1001 519 74.1001C462.17 74.1001 416.1 120.17 416.1 177C416.1 233.83 462.17 279.9 519 279.9Z" fill="#D66262"/>
<path opacity="0.2" d="M519 304.4C589.361 304.4 646.4 247.361 646.4 177C646.4 106.639 589.361 49.6001 519 49.6001C448.639 49.6001 391.6 106.639 391.6 177C391.6 247.361 448.639 304.4 519 304.4Z" fill="#D66262"/>
<path opacity="0.15" d="M519 331.6C604.384 331.6 673.6 262.383 673.6 177C673.6 91.6167 604.384 22.3999 519 22.3999C433.617 22.3999 364.4 91.6167 364.4 177C364.4 262.383 433.617 331.6 519 331.6Z" fill="#D66262"/>
<path opacity="0.07" d="M519 354C616.754 354 696 274.754 696 177C696 79.2456 616.754 0 519 0C421.246 0 342 79.2456 342 177C342 274.754 421.246 354 519 354Z" fill="#D66262"/>
<path opacity="0.4" d="M519 258.8C564.177 258.8 600.8 222.177 600.8 177C600.8 131.823 564.177 95.2002 519 95.2002C473.823 95.2002 437.2 131.823 437.2 177C437.2 222.177 473.823 258.8 519 258.8Z" fill="url(#paint0_linear)"/>
<path opacity="0.9" d="M519 229.9C548.215 229.9 571.9 206.216 571.9 177C571.9 147.784 548.215 124.1 519 124.1C489.784 124.1 466.1 147.784 466.1 177C466.1 206.216 489.784 229.9 519 229.9Z" fill="url(#paint1_linear)"/>
<path d="M696.947 212.642C696.947 212.642 310.589 155.939 59.5715 358.895C-191.446 561.852 434.709 448.99 578.777 587.635L696.947 588.135V212.642Z" fill="url(#paint2_linear)"/>
<defs>
<linearGradient id="paint0_linear" x1="500.188" y1="97.3576" x2="537.85" y2="256.68" gradientUnits="userSpaceOnUse">
<stop offset="0.019919" stop-color="#DD7373"/>
<stop offset="1" stop-color="#EFE0AB"/>
</linearGradient>
<linearGradient id="paint1_linear" x1="506.6" y1="124.485" x2="530.184" y2="224.254" gradientUnits="userSpaceOnUse">
<stop offset="0.019919" stop-color="#DD7373"/>
<stop offset="1" stop-color="#EFE0AB"/>
</linearGradient>
<linearGradient id="paint2_linear" x1="378.726" y1="448.535" x2="378.726" y2="162.035" gradientUnits="userSpaceOnUse">
<stop stop-color="#2D084A"/>
<stop offset="0.9954" stop-color="#4C2A79"/>
</linearGradient>
</defs>
</svg>
