<svg width="211" height="217" viewBox="0 0 211 217" fill="none" xmlns="http://www.w3.org/2000/svg">
<path opacity="0.3" d="M190 120.183C214.402 120.183 234.183 100.402 234.183 76C234.183 51.5983 214.402 31.8169 190 31.8169C165.598 31.8169 145.817 51.5983 145.817 76C145.817 100.402 165.598 120.183 190 120.183Z" fill="#D66262"/>
<path opacity="0.2" d="M190 130.703C220.212 130.703 244.703 106.212 244.703 76.0002C244.703 45.7887 220.212 21.2974 190 21.2974C159.789 21.2974 135.297 45.7887 135.297 76.0002C135.297 106.212 159.789 130.703 190 130.703Z" fill="#D66262"/>
<path opacity="0.15" d="M190 142.382C226.661 142.382 256.382 112.662 256.382 76.0001C256.382 39.3384 226.661 9.61816 190 9.61816C153.338 9.61816 123.618 39.3384 123.618 76.0001C123.618 112.662 153.338 142.382 190 142.382Z" fill="#D66262"/>
<path opacity="0.07" d="M190 152C231.974 152 266 117.974 266 76C266 34.0264 231.974 0 190 0C148.026 0 114 34.0264 114 76C114 117.974 148.026 152 190 152Z" fill="#D66262"/>
<path opacity="0.4" d="M190 111.123C209.398 111.123 225.123 95.3981 225.123 76.0001C225.123 56.6021 209.398 40.877 190 40.877C170.602 40.877 154.877 56.6021 154.877 76.0001C154.877 95.3981 170.602 111.123 190 111.123Z" fill="url(#paint0_linear)"/>
<path opacity="0.9" d="M190 98.7139C202.545 98.7139 212.714 88.5444 212.714 75.9998C212.714 63.4551 202.545 53.2856 190 53.2856C177.456 53.2856 167.286 63.4551 167.286 75.9998C167.286 88.5444 177.456 98.7139 190 98.7139Z" fill="url(#paint1_linear)"/>
<path d="M319 89.3199C319 89.3199 130.293 62.3012 0 162.421C0 162.421 187.753 207.452 259.857 276.75L319 277V89.3199Z" fill="url(#paint2_linear)"/>
<defs>
<linearGradient id="paint0_linear" x1="181.922" y1="41.8033" x2="198.094" y2="110.213" gradientUnits="userSpaceOnUse">
<stop offset="0.019919" stop-color="#DD7373"/>
<stop offset="1" stop-color="#EFE0AB"/>
</linearGradient>
<linearGradient id="paint1_linear" x1="184.676" y1="53.4511" x2="194.803" y2="96.2894" gradientUnits="userSpaceOnUse">
<stop offset="0.019919" stop-color="#DD7373"/>
<stop offset="1" stop-color="#EFE0AB"/>
</linearGradient>
<linearGradient id="paint2_linear" x1="159.734" y1="207.225" x2="159.734" y2="64.0254" gradientUnits="userSpaceOnUse">
<stop stop-color="#2D084A"/>
<stop offset="0.9954" stop-color="#4C2A79"/>
</linearGradient>
</defs>
</svg>
